HIERARCHY
ROOT root
{
	OFFSET 0.000000 0.000000 0.000000
	CHANNELS 6 Xposition Yposition Zposition Zrotation Yrotation Xrotation
	JOINT lhip
	{
		OFFSET 0.058581 -0.082280 -0.017664
		CHANNELS 3 Zrotation Yrotation Xrotation
		JOINT lknee
		{
			OFFSET 0.043451 -0.386469 0.008037
			CHANNELS 3 Zrotation Yrotation Xrotation
			JOINT lankle
			{
				OFFSET -0.014790 -0.426874 -0.037428
				CHANNELS 3 Zrotation Yrotation Xrotation
				JOINT ltoe
				{
					OFFSET 0.041054 -0.060286 0.122042
					CHANNELS 3 Zrotation Yrotation Xrotation
					End Site
					{
						OFFSET 0.000000 0.000000 0.000000
					}
				}
			}
		}
	}
	JOINT rhip
	{
		OFFSET -0.060310 -0.090513 -0.013543
		CHANNELS 3 Zrotation Yrotation Xrotation
		JOINT rknee
		{
			OFFSET -0.043257 -0.383688 -0.004843
			CHANNELS 3 Zrotation Yrotation Xrotation
			JOINT rankle
			{
				OFFSET 0.019056 -0.420046 -0.034562
				CHANNELS 3 Zrotation Yrotation Xrotation
				JOINT rtoe
				{
					OFFSET -0.034840 -0.062106 0.130323
					CHANNELS 3 Zrotation Yrotation Xrotation
					End Site
					{
						OFFSET 0.000000 0.000000 0.000000
					}
				}
			}
		}
	}
	JOINT lowerback
	{
		OFFSET 0.004439 0.124404 -0.038385
		CHANNELS 3 Zrotation Yrotation Xrotation
		JOINT upperback
		{
			OFFSET 0.004488 0.137956 0.026820
			CHANNELS 3 Zrotation Yrotation Xrotation
			JOINT chest
			{
				OFFSET -0.002265 0.056032 0.002855
				CHANNELS 3 Zrotation Yrotation Xrotation
				JOINT lowerneck
				{
					OFFSET -0.013390 0.211636 -0.033468
					CHANNELS 3 Zrotation Yrotation Xrotation
					JOINT upperneck
					{
						OFFSET 0.010113 0.088937 0.050410
						CHANNELS 3 Zrotation Yrotation Xrotation
						End Site
						{
							OFFSET 0.000000 0.000000 0.000000
						}
					}
				}
				JOINT lclavicle
				{
					OFFSET 0.071702 0.114000 -0.018898
					CHANNELS 3 Zrotation Yrotation Xrotation
					JOINT lshoulder
					{
						OFFSET 0.122921 0.045205 -0.019046
						CHANNELS 3 Zrotation Yrotation Xrotation
						JOINT lelbow
						{
							OFFSET 0.255332 -0.015649 -0.022946
							CHANNELS 3 Zrotation Yrotation Xrotation
							JOINT lwrist
							{
								OFFSET 0.265709 0.012698 -0.007375
								CHANNELS 3 Zrotation Yrotation Xrotation
								End Site
								{
									OFFSET 0.000000 0.000000 0.000000
								}
							}
						}
					}
				}
				JOINT rclavicle
				{
					OFFSET -0.082954 0.112472 -0.023707
					CHANNELS 3 Zrotation Yrotation Xrotation
					JOINT rshoulder
					{
						OFFSET -0.113228 0.046853 -0.008472
						CHANNELS 3 Zrotation Yrotation Xrotation
						JOINT relbow
						{
							OFFSET -0.260127 -0.014369 -0.031269
							CHANNELS 3 Zrotation Yrotation Xrotation
							JOINT rwrist
							{
								OFFSET -0.269108 0.006794 -0.006027
								CHANNELS 3 Zrotation Yrotation Xrotation
								End Site
								{
									OFFSET 0.000000 0.000000 0.000000
								}
							}
						}
					}
				}
			}
		}
	}
}
MOTION
Frames: 15
Frame Time: 0.033333
0.007949 0.224910 1.003651 90.377234 1.434100 90.343436 3.621458 1.547955 1.127766 0.880134 -7.635566 -1.628446 -0.970085 9.253976 -2.775185 0.000000 -0.000000 0.000000 -0.380583 -3.070724 1.565511 -1.687813 2.389532 -1.181610 3.399558 -8.154076 -2.626448 0.000000 -0.000000 0.000000 1.140271 1.677526 2.188238 0.807564 -3.157049 2.241005 0.107722 -0.405382 -2.924140 0.374296 -1.213320 -9.319842 1.755298 0.535207 15.569787 -23.135802 -5.932051 5.238893 -60.433730 -6.581277 22.051458 5.154489 -21.525073 19.901269 -7.614319 -7.885185 8.799046 21.966712 10.242309 5.035533 60.386813 8.353069 18.817142 -4.982863 16.072032 5.980521 10.271598 5.862371 -5.073972 
0.008342 0.224907 1.003462 90.290665 1.494262 90.355314 3.711818 1.681750 1.038741 0.805701 -7.625181 -1.403434 -1.252063 9.255521 -2.899126 0.000000 -0.000000 0.000000 -0.290955 -2.996624 1.580735 -1.745468 2.488548 -1.225219 3.610258 -8.265380 -2.601525 0.000000 -0.000000 0.000000 1.230173 1.589994 2.235783 0.745153 -3.071726 1.903151 0.150883 -0.344595 -2.655336 0.371432 -1.092769 -9.310630 1.696361 0.476500 15.589672 -23.052334 -6.035855 5.309000 -60.652275 -6.589768 21.934535 5.306177 -21.379767 19.977203 -7.912324 -7.968892 8.703196 21.864314 10.233098 5.019088 60.478880 8.348918 18.781388 -5.218729 16.077554 6.347275 10.458610 5.888868 -4.796056 
0.008477 0.225041 1.003360 90.256943 1.498778 90.378323 3.691188 1.757538 1.068116 0.859981 -7.647479 -1.518445 -1.240441 9.274947 -2.846980 0.000000 -0.000000 0.000000 -0.283739 -2.984049 1.558189 -1.773251 2.477612 -1.230258 3.619947 -8.247224 -2.592841 0.000000 -0.000000 0.000000 1.250422 1.539365 2.217425 0.740680 -3.069685 1.874899 0.144923 -0.325891 -2.685343 0.349810 -1.148136 -9.201588 1.702693 0.599679 15.544566 -22.989424 -5.996933 5.267998 -60.823259 -6.601717 22.049502 5.325716 -21.229284 19.940421 -7.667424 -7.887670 8.553939 21.749150 10.212513 4.944757 60.597435 8.374078 18.808625 -5.062781 15.886047 6.080854 10.241114 5.944431 -5.121541 
0.008828 0.225085 1.003341 90.210201 1.537600 90.382069 3.727224 1.759918 1.097636 0.849842 -7.645214 -1.507696 -1.211420 9.297098 -2.881319 0.000000 -0.000000 0.000000 -0.241762 -2.963591 1.532810 -1.781349 2.518441 -1.154881 3.625387 -8.242816 -2.638743 0.000000 -0.000000 0.000000 1.237147 1.513121 2.228099 0.776925 -3.083671 1.793914 0.175181 -0.335544 -2.706559 0.434108 -1.133027 -9.296011 1.694937 0.795146 15.696671 -22.973715 -5.969261 5.293435 -60.923474 -6.557323 22.111169 5.300081 -21.293729 20.098417 -7.609298 -7.803043 8.500172 21.754896 10.175075 4.999959 60.566512 8.403697 18.859979 -5.021000 15.933393 6.130030 10.248602 5.873812 -5.209692 
0.008904 0.225182 1.003342 90.187492 1.529301 90.365121 3.710162 1.734860 1.173271 0.856102 -7.637511 -1.611166 -1.183868 9.331741 -2.843891 0.000000 -0.000000 0.000000 -0.264265 -2.964338 1.547562 -1.777958 2.533152 -1.144587 3.644525 -8.253392 -2.627809 0.000000 -0.000000 0.000000 1.210276 1.547959 2.197487 0.780492 -3.076276 1.851798 0.199902 -0.345614 -2.716594 0.465788 -1.135390 -9.332301 1.717940 0.775834 15.696407 -22.998188 -6.031730 5.319010 -60.922287 -6.609828 22.110170 5.289961 -21.311444 20.176208 -7.656966 -7.752262 8.555648 21.750000 10.179095 5.019833 60.569164 8.405999 18.853138 -5.047411 15.995110 6.157263 10.296384 5.870591 -5.192714 
0.009072 0.225316 1.003333 90.157396 1.537349 90.337437 3.713691 1.756726 1.184518 0.845911 -7.630697 -1.526812 -1.181694 9.236606 -2.841375 0.000000 -0.000000 0.000000 -0.285583 -2.979956 1.587482 -1.759733 2.523099 -1.170086 3.712066 -8.199877 -2.607437 0.000000 -0.000000 0.000000 1.200726 1.547828 2.099728 0.792350 -3.086532 1.969872 0.203015 -0.369874 -2.735702 0.557136 -1.090023 -9.362596 1.753165 0.735473 15.700527 -23.016875 -6.133100 5.358583 -60.880195 -6.634409 22.102168 5.276674 -21.334793 20.216689 -7.634037 -7.762823 8.674225 21.813099 10.191152 5.084918 60.531444 8.471805 18.781387 -4.978975 16.042247 6.227733 10.198753 5.919028 -5.019186 
0.009133 0.225440 1.003286 90.133499 1.546758 90.309544 3.729919 1.770233 1.253654 0.836527 -7.608348 -1.597222 -1.213031 9.281256 -2.898180 0.000000 -0.000000 0.000000 -0.263593 -2.978152 1.603210 -1.786528 2.571067 -1.124172 3.683088 -8.226589 -2.664015 0.000000 -0.000000 0.000000 1.176726 1.547218 2.127100 0.800282 -3.089370 1.946918 0.233621 -0.384135 -2.739778 0.645672 -1.141971 -9.432575 1.818495 0.730871 15.736852 -23.015833 -6.167706 5.370276 -60.843327 -6.641770 22.139649 5.202305 -21.359496 20.321337 -7.595438 -7.789945 8.599393 21.827599 10.233171 5.053681 60.543357 8.457583 18.851641 -4.942822 16.024899 6.245798 10.207431 5.860464 -5.172310 
0.009213 0.225506 1.003275 90.138726 1.567383 90.329113 3.741415 1.799337 1.208423 0.827519 -7.624376 -1.536474 -1.209017 9.301082 -2.887514 0.000000 -0.000000 0.000000 -0.229680 -2.964317 1.591864 -1.800533 2.586160 -1.132298 3.643899 -8.266330 -2.690727 0.000000 -0.000000 0.000000 1.166206 1.526223 2.171296 0.820663 -3.098552 1.842795 0.248442 -0.393289 -2.813791 0.747002 -1.221771 -9.461819 1.859890 0.767506 15.817772 -23.032417 -6.148618 5.401747 -60.784713 -6.568843 22.178438 5.185868 -21.451405 20.417015 -7.598146 -7.722307 8.674244 21.857256 10.200757 5.053194 60.561381 8.370921 18.911406 -4.913992 16.067586 6.350479 10.293278 5.853119 -5.145660 
0.009239 0.225591 1.003328 90.077201 1.561956 90.293613 3.727659 1.781231 1.279046 0.842848 -7.592398 -1.575160 -1.214825 9.322327 -2.936348 0.000000 -0.000000 0.000000 -0.253192 -2.951758 1.609953 -1.796825 2.616889 -1.098104 3.696773 -8.235363 -2.658194 0.000000 -0.000000 0.000000 1.101559 1.561157 2.068487 0.850527 -3.084850 1.962911 0.278360 -0.431408 -2.797291 0.829346 -1.178775 -9.498070 1.901165 0.665188 15.788368 -23.017682 -6.160971 5.426939 -60.740576 -6.624143 22.098289 5.108123 -21.469766 20.447659 -7.751714 -7.803126 8.730207 21.893842 10.164948 5.045401 60.511666 8.439430 18.853046 -4.939268 16.072280 6.415257 10.354014 5.862230 -4.976473 
0.009167 0.225687 1.003334 90.056410 1.565804 90.269252 3.718357 1.752155 1.277035 0.825936 -7.552556 -1.501166 -1.192120 9.353873 -2.962775 0.000000 -0.000000 0.000000 -0.260097 -2.934185 1.631777 -1.798708 2.608570 -1.118815 3.719169 -8.239151 -2.641030 0.000000 -0.000000 0.000000 1.133767 1.558009 2.048278 0.836063 -3.087556 1.964849 0.262357 -0.410629 -2.767113 0.854202 -1.176332 -9.517537 1.932397 0.654910 15.779924 -23.025029 -6.154249 5.412195 -60.688718 -6.627080 22.067535 5.087180 -21.496689 20.416226 -7.795705 -7.859739 8.676657 21.876364 10.213378 5.079725 60.518309 8.442823 18.848091 -4.973377 16.077608 6.335484 10.331136 5.877277 -5.062965 
0.009139 0.225763 1.003345 89.994222 1.558901 90.224975 3.717652 1.793872 1.340062 0.806378 -7.537083 -1.513948 -1.198707 9.370615 -2.965751 0.000000 -0.000000 0.000000 -0.271659 -2.923066 1.658801 -1.808094 2.631405 -1.100969 3.706521 -8.213151 -2.652158 0.000000 -0.000000 0.000000 1.121568 1.534766 2.032906 0.831900 -3.078658 1.993282 0.271797 -0.399253 -2.748543 0.896668 -1.164613 -9.484277 1.959637 0.674648 15.767918 -23.068628 -6.111547 5.429101 -60.616722 -6.611627 22.004893 5.081659 -21.579159 20.421004 -7.783946 -7.881869 8.612696 21.869003 10.206255 5.082999 60.490382 8.474714 18.816316 -4.970589 16.083911 6.323945 10.291332 5.862966 -5.080769 
0.009093 0.225851 1.003352 89.945098 1.559488 90.176840 3.712763 1.821723 1.405317 0.810530 -7.543000 -1.536468 -1.182923 9.351594 -2.966786 0.000000 -0.000000 0.000000 -0.276317 -2.916694 1.685715 -1.813749 2.653212 -1.070247 3.682061 -8.197608 -2.680521 0.000000 -0.000000 0.000000 1.106816 1.525725 2.023896 0.843754 -3.067549 2.012365 0.298767 -0.400882 -2.724993 0.904260 -1.185547 -9.442259 1.961592 0.655334 15.791942 -23.106079 -6.087441 5.437364 -60.599693 -6.614409 21.958624 5.048244 -21.590596 20.392852 -7.788050 -7.875472 8.522023 21.832430 10.217435 5.068494 60.474915 8.479130 18.786728 -5.000140 16.084153 6.215493 10.297961 5.875522 -5.199827 
0.008957 0.225995 1.003334 89.895510 1.548823 90.156455 3.688332 1.835884 1.402083 0.813567 -7.539280 -1.496498 -1.161287 9.389963 -3.029648 0.000000 -0.000000 0.000000 -0.309597 -2.868019 1.675844 -1.803208 2.665697 -1.023262 3.664478 -8.188647 -2.701568 0.000000 -0.000000 0.000000 1.100252 1.505548 2.018445 0.846344 -3.055003 2.027532 0.296152 -0.373625 -2.702414 0.931695 -1.185410 -9.451102 1.982793 0.641133 15.802019 -23.096887 -5.979775 5.343821 -60.667965 -6.618820 21.968094 5.050096 -21.524812 20.427045 -7.830305 -7.901979 8.559037 21.805264 10.150107 5.007562 60.485724 8.485656 18.779152 -5.015767 16.057802 6.177825 10.307821 5.953067 -5.198410 
0.008710 0.226081 1.003350 89.832918 1.550838 90.128418 3.681415 1.846324 1.416591 0.802122 -7.536901 -1.467420 -1.108795 9.373109 -2.970046 0.000000 -0.000000 0.000000 -0.309243 -2.851904 1.627144 -1.814069 2.680873 -0.916833 3.655973 -8.141943 -2.732596 0.000000 -0.000000 0.000000 1.107853 1.521759 2.083890 0.846681 -3.022010 2.001571 0.284648 -0.374858 -2.716688 0.957527 -1.212145 -9.410681 1.977438 0.622589 15.819596 -23.067796 -5.964711 5.279356 -60.750033 -6.567859 22.002968 5.057163 -21.503590 20.265901 -7.702793 -7.778460 8.547615 21.810799 10.089403 4.993460 60.509877 8.467629 18.773634 -5.051389 16.065682 6.129699 10.292955 5.877399 -5.135334 
0.008579 0.226191 1.003387 89.790978 1.539477 90.116164 3.646792 1.831992 1.440079 0.825924 -7.506282 -1.474039 -1.111792 9.400354 -3.026476 0.000000 -0.000000 0.000000 -0.336459 -2.841640 1.604821 -1.804576 2.682140 -0.878226 3.690652 -8.118395 -2.701085 0.000000 -0.000000 0.000000 1.118301 1.537579 2.089547 0.855097 -3.017797 2.037246 0.253227 -0.358799 -2.716178 0.972801 -1.181068 -9.392281 1.953545 0.568991 15.808077 -23.068587 -5.928405 5.229739 -60.768377 -6.586823 21.971631 5.046911 -21.441335 20.288811 -7.862995 -7.806505 8.749516 21.841918 10.012025 4.969368 60.483909 8.474305 18.791353 -5.177795 16.161495 6.391295 10.422208 5.802945 -4.713082 
